name processed_emg_signals
nRows=37
nColumns=7
 
endheader
time	RGLTMED	RRF	RADDLONG	RBF	RTA	RGM
0.22710099999999994	0.5017750833200916	0.3720869672501636	0.2453541338956847	0.1831854149533422	0.5718323136078699	0.1961151919009766
0.22810099999999994	0.500924635318413	0.3718515010907001	0.2464564140151316	0.1835062020628688	0.567696796670282	0.195720739214792
0.22910099999999994	0.5000584387529246	0.3715921614973222	0.2476975572545643	0.183838741314681	0.5636219900199729	0.1953270025470617
0.23010099999999994	0.4991779063185352	0.3713075164116776	0.2490799851286753	0.1841827593854604	0.5596106457401095	0.1949346563360569
0.23110099999999995	0.4982844082539123	0.3709961604176184	0.2506060254490119	0.1845379398695423	0.5556653526888791	0.1945443611366774
0.23210099999999995	0.4973792688331581	0.37065672059492	0.2522779072396954	0.1849039237973895	0.5517885360598035	0.1941567618899491
0.23310099999999995	0.4964637630774698	0.3702878623654175	0.2540977557399496	0.185280310300523	0.5479824573883825	0.1937724862888304
0.23410099999999995	0.4955391136901731	0.369888295306002	0.2560675874984323	0.1856666574194701	0.5442492149879816	0.1933921432442555
0.23510099999999995	0.4946064882181099	0.3694567789021793	0.2581893055643223	0.1860624830506801	0.5405907447971923	0.1930163214546233
0.23610099999999995	0.4936669964417844	0.3689921282150443	0.260464694780177	0.1864672660278977	0.5370088216205489	0.1926455880813282
0.23710099999999995	0.4927216879959845	0.3684932194340425	0.262895417182132	0.1868804473331784	0.5335050607445448	0.1922804875322699
0.23810099999999995	0.4917715502220681	0.3679589952876943	0.2654830075138077	0.1873014314325408	0.5300809199109372	0.1919215403547472
0.23910099999999995	0.4908175062525824	0.3673884702847411	0.2682288688610577	0.187729587731224	0.5267377016294804	0.1915692422385491
0.24010099999999995	0.4898604133288826	0.3667807357587038	0.2711342684153672	0.1881642521436128	0.5234765558120977	0.1912240631294708
0.24110099999999995	0.4889010613532726	0.3661349646893234	0.2742003333740129	0.188604728773173	0.5202984827106099	0.1908864464529059
0.24210099999999996	0.4879401716787691	0.3654504162745787	0.2774280469853739	0.1890502916979091	0.517204336140241	0.1905568084464931
0.24310099999999996	0.4869783961410505	0.3647264402271102	0.280818244748241	0.1895001868568613	0.5141948269715971	0.1902355376002134
0.24410099999999996	0.4860163163376517	0.363962480769084	0.2843716107744575	0.1899536340328069	0.5112705268740498	0.1899229942017505
0.24510099999999993	0.4850544431589612	0.363158080300012	0.2880886743248442	0.1904098289259724	0.5084318722933031	0.1896195099844173
0.24610099999999993	0.4840932165746774	0.3623128827131932	0.2919698065289426	0.1908679453130848	0.5056791686452033	0.1893253878745067
0.24710099999999993	0.4831330056782163	0.3614266363384805	0.2960152172996635	0.1913271372858887	0.5030125947072098	0.1890409018345085
0.24810099999999993	0.4821741089905831	0.3604991964920603	0.3002249524542886	0.1917865415629593	0.5004322071886372	0.1887662967982588
0.24910099999999993	0.4812167550241632	0.3595305276176534	0.3045988910533336	0.1922452798684977	0.497937945460942	0.1885017886937872
0.25010099999999996	0.4802611031060007	0.3585207050076208	0.3091367429686982	0.1927024613715928	0.4955296364300678	0.1882475645494124
0.25110099999999996	0.479307244459197	0.3574699160970142	0.3138380466923567	0.1931571851793897	0.4932069995338138	0.1880037826787388
0.25210099999999996	0.4783552035400837	0.3563784613283999	0.318702167396491	0.1936085428776425	0.4909696518482625	0.1877705729407842
0.25310099999999996	0.4774049396277164	0.3552467545901658	0.3237282952553675	0.1940556211120977	0.4888171132884902	0.1875480370726716
0.25410099999999997	0.4764563486612342	0.3540753232349135	0.3289154440385339	0.1944975042040438	0.4867488118900084	0.1873362490935618
0.25510099999999997	0.475509265319903	0.352864807686834	0.3342624499840366	0.1949332767929914	0.4847640891588325	0.1871352557795219
0.25610099999999997	0.4745634653405284	0.3516159606478941	0.3397679709595467	0.1953620264989721	0.4828622054792672	0.1869450772093332
0.25710099999999997	0.4736186680670517	0.3503296459129134	0.3454304859184045	0.1957828465963434	0.4810423455691459	0.1867657073811311
0.25810099999999997	0.472674539227288	0.3490068368041655	0.3512482946566863	0.1961948386903137	0.479303623972411	0.1865971148993762
0.25910099999999997	0.4717306939314121	0.347648614237597	0.3572195178766465	0.196597115386752	0.4776450905786021	0.1864392437312418
0.26010099999999997	0.4707866998858609	0.3462561644350287	0.3633420975609007	0.196988802945128	0.4760657361586091	0.1862920140310092
0.26110099999999997	0.4698420808149089	0.3448307762990081	0.3696137976607992	0.1973690439037735	0.4745644979057443	0.1861553230307498
0.262101	0.4688963200805146	0.3433738384687643	0.3760322051014684	0.1977369996659466	0.4731402649709813	0.1860290459953412
0.263101	0.4679488644893959	0.3418868360763212	0.3825947311050287	0.1980918530346186	0.4717918839808055	0.1859130372396196
